<svg width="143" height="61" viewBox="0 0 143 61" fill="none" xmlns="http://www.w3.org/2000/svg">
  <path
    d="M27.5948 52.0196V15.7777C27.5948 15.7777 25.3397 11.2676 17.6081 7.07963C9.87654 2.89167 5.04429 2.40845 5.04429 2.40845C5.04429 2.40845 0.683904 12.2218 0.212125 18.3549C-0.259653 24.488 -0.138859 28.3683 2.62816 33.8181C5.12642 38.7386 8.07821 40.7615 12.2928 44.1269C16.5073 47.4922 27.5948 52.0196 27.5948 52.0196Z"
    fill="url(#paint0_linear_73_1102)" />
  <g filter="url(#filter0_d_73_1102)">
    <path
      d="M22.1183 26.5698V37.0591C22.1203 37.151 22.1183 37.2007 22.1183 37.2007V37.0591C22.1024 36.3238 21.832 32.8875 18.2525 30.5966C14.2257 28.0194 4.8833 26.5698 4.8833 26.5698C4.8833 26.5698 10.012 26.7737 12.9371 27.2141C15.8621 27.6544 20.5076 29.4691 20.5076 29.4691C20.5076 29.4691 18.6739 24.6466 17.125 21.7375C13.5053 14.939 4.8833 6.27429 4.8833 6.27429C4.8833 6.27429 11.3661 11.8979 14.87 16.0999C18.0547 19.9193 22.1183 26.5698 22.1183 26.5698Z"
      fill="#A8CF45" />
  </g>
  <g filter="url(#filter1_d_73_1102)">
    <path
      d="M52.2394 33.6571C58.3453 21.2542 49.3401 2.56958 49.3401 2.56958C49.3401 2.56958 36.9373 4.50236 27.756 13.8447C18.5747 23.1871 21.9572 38.6503 23.407 43.4825C24.8568 48.3148 27.756 52.0196 27.756 52.0196C27.756 52.0196 46.1336 46.06 52.2394 33.6571Z"
      fill="url(#paint1_linear_73_1102)" />
  </g>
  <g filter="url(#filter2_d_73_1102)">
    <circle cx="37.4204" cy="28.0194" r="12.4028" fill="url(#paint2_linear_73_1102)" />
  </g>
  <g filter="url(#filter3_d_73_1102)">
    <path
      d="M27.7561 51.6973L30.0111 50.8919C30.0111 50.8919 30.1721 36.8784 34.6823 25.7642C39.1924 14.65 50.1455 5.14661 50.1455 5.14661C50.1455 5.14661 38.548 12.5561 32.7494 25.7642C26.9507 38.9724 27.7561 51.6973 27.7561 51.6973Z"
      fill="white" />
  </g>
  <g filter="url(#filter4_d_73_1102)">
    <path
      d="M27.9171 50.9019C43.2192 53.318 45.5 59.5916 45.5 59.5916C45.5 59.5916 40.1588 56.7005 27.9171 55.7341C15.6754 54.7676 5 55.7341 5 55.7341C5 55.7341 12.6149 48.4858 27.9171 50.9019Z"
      fill="#744B0F" />
  </g>
  <path
    d="M62.3625 3.89634V3.82545H67.4839C70.5257 3.82545 72.5708 5.13693 72.5708 7.63585C72.5708 9.12456 71.849 10.1879 70.6288 10.8082L72.1412 14.0338C72.9833 15.8415 73.5676 16.3909 74.0488 16.515V16.5859H68.9447V16.515C69.8727 16.515 70.0274 15.8415 69.1853 14.0338L67.9651 11.4462C67.8104 11.464 67.6557 11.464 67.4839 11.464H66.7277V14.0338C66.7277 15.8415 67.2089 16.515 68.1369 16.515V16.5859H62.3625V16.515C63.2906 16.515 63.7718 15.8415 63.7718 14.0338V6.37753C63.7718 4.5698 63.2906 3.89634 62.3625 3.89634ZM66.7277 4.69386V10.5778C68.515 10.5778 69.6149 9.49674 69.6149 7.63585C69.6149 5.79268 68.515 4.69386 66.7277 4.69386Z"
    fill="#744B0F" />
  <path
    d="M78.0364 6.85604C80.3393 6.85604 81.8344 8.16753 81.8344 9.69169V14.0338C81.8344 15.3984 82.3672 15.8238 82.8312 15.8238C82.9859 15.8238 83.1234 15.7883 83.2437 15.7174V15.7706C82.7968 16.2314 82.1781 16.6745 81.1986 16.6745C80.1674 16.6745 79.5487 16.1073 79.2738 15.4516C78.5004 16.1251 77.4521 16.6745 76.1116 16.6745C74.3243 16.6745 73.8259 15.4162 73.8259 14.5655C73.8259 10.9855 79.0847 11.588 79.0847 9.33723C79.0847 8.16753 78.4832 7.58268 77.6411 7.58268C76.3178 7.58268 74.9258 9.05367 74.5993 10.2765H74.5477L74.9086 7.65357C74.9086 7.65357 76.0944 6.85604 78.0364 6.85604ZM79.0847 14.5123V10.4715C78.2598 11.783 76.2319 12.2792 76.2319 13.7502C76.2319 14.53 76.7647 15.4339 77.7614 15.4339C78.277 15.4339 78.7238 15.168 79.1019 14.8136C79.0847 14.7072 79.0847 14.6186 79.0847 14.5123Z"
    fill="#744B0F" />
  <path
    d="M85.9536 2H88.7033L85.2146 5.65089H84.6991L85.9536 2ZM83.9085 7.81307L88.0675 6.96238V14.0338C88.0675 15.8415 88.5487 16.515 89.4767 16.515V16.5859H83.9085V16.515C84.8365 16.515 85.3177 15.8415 85.3177 14.0338V10.1879C85.3177 8.39793 84.8365 7.88397 83.9085 7.88397V7.81307Z"
    fill="#744B0F" />
  <path
    d="M90.2045 9.76258L91.081 6.96238H97.5772L93.3667 15.7174H94.14C96.1679 15.7174 97.2506 14.7427 97.5084 13.7857H97.5772L96.7007 16.5859H90.2045L94.3978 7.8308H93.6416C91.6137 7.8308 90.531 8.80555 90.2733 9.76258H90.2045Z"
    fill="#744B0F" />
  <path
    d="M103.43 6.85604C105.578 6.85604 107.503 8.30931 107.829 9.86892L101.574 13.5907C102.193 15.1149 103.035 15.8769 103.98 15.8769C105.183 15.8769 105.939 14.8845 106.042 13.697H107.881C107.348 15.7174 105.578 16.6745 103.43 16.6745C100.68 16.6745 98.3602 15.0794 98.3602 11.7653C98.3602 8.46882 100.68 6.85604 103.43 6.85604ZM102.88 7.67129C102.725 7.67129 102.553 7.68901 102.382 7.74218C101.024 8.11436 100.508 9.74486 101.196 12.3856C101.265 12.6868 101.35 12.9881 101.454 13.254C106.437 9.93981 104.203 7.67129 102.88 7.67129Z"
    fill="#744B0F" />
  <path
    d="M112.133 6.85604C113.147 6.85604 114.402 7.40545 114.986 7.74218L115.209 10.7728H115.158C114.642 9.85119 113.336 7.58268 111.961 7.58268C111.429 7.58268 111.154 7.95486 111.154 8.45109C111.154 10.2057 115.433 12.0311 115.433 14.2996C115.433 15.9656 113.835 16.6745 111.807 16.6745C110.81 16.6745 109.59 16.1428 109.005 15.7883L108.765 12.7755H108.833C109.263 13.7148 110.638 15.9478 111.841 15.9478C112.735 15.9478 112.975 15.3807 112.975 14.8667C112.975 13.4844 108.971 11.9957 108.971 9.51446C108.971 7.9903 110.14 6.85604 112.133 6.85604Z"
    fill="#744B0F" />
  <path
    d="M126.612 7.01555V2.97475L130.771 3.82545V3.89634C129.86 3.89634 129.361 4.4103 129.361 6.2003V14.4768C129.121 15.4516 128.021 16.6745 125.701 16.6745C122.951 16.6745 120.631 15.0794 120.631 11.7653C120.631 8.46882 122.951 6.85604 125.701 6.85604C126.01 6.85604 126.319 6.90921 126.612 7.01555ZM125.701 7.58268C124.309 7.58268 123.381 9.03595 123.381 11.7653C123.381 14.5123 124.309 15.9478 125.701 15.9478C126.302 15.9478 126.612 15.3807 126.612 14.8136V8.75238C126.612 8.20298 126.612 7.58268 125.701 7.58268Z"
    fill="#805500" />
  <path
    d="M136.543 6.85604C139.292 6.85604 141.612 8.46882 141.612 11.7653C141.612 15.0794 139.292 16.6745 136.543 16.6745C133.793 16.6745 131.473 15.0794 131.473 11.7653C131.473 8.46882 133.793 6.85604 136.543 6.85604ZM136.543 7.58268C135.151 7.58268 134.222 9.03595 134.222 11.7653C134.222 14.5123 135.151 15.9478 136.543 15.9478C137.952 15.9478 138.863 14.5123 138.863 11.7653C138.863 9.03595 137.952 7.58268 136.543 7.58268Z"
    fill="#805500" />
  <path
    d="M62.6356 21.413V21.2988H72.3264C76.6734 21.2988 79.553 22.6408 79.553 25.3534C79.553 27.6377 77.1441 29.0939 74.9014 29.6364C74.4307 29.7506 74.3753 29.7792 75.2337 30.0076C78.4731 30.8356 80.7436 32.4346 80.7436 35.7183C80.7436 39.7157 78.1132 41.8572 72.8248 41.8572H62.6356V41.743C64.1308 41.743 64.906 40.658 64.906 37.7456V25.4105C64.906 22.498 64.1308 21.413 62.6356 21.413ZM71.5235 22.6979H69.6684V40.4581H70.6374C73.4893 40.4581 75.9812 38.6878 75.9812 35.7183C75.9812 33.2341 75.2336 31.007 72.714 29.9505C72.3541 29.8077 72.4648 29.7792 72.7694 29.6364C73.96 28.9797 74.7906 27.2094 74.7906 25.5533C74.7906 23.5545 73.0463 22.6979 71.5235 22.6979Z"
    fill="#006926" />
  <path
    d="M93.2685 26.1814C94.5421 26.1814 95.6773 27.038 95.6773 28.2944C95.6773 29.5507 94.8744 30.4073 93.6284 30.4073C92.5209 30.4073 91.3303 29.979 90.3059 29.979C89.5306 29.979 88.8384 30.2075 88.3123 31.007V37.7456C88.3123 40.658 89.0876 41.743 90.5827 41.743V41.8572H81.6118V41.743C83.107 41.743 83.8823 40.658 83.8823 37.7456V31.5495C83.8823 28.6656 83.107 27.8375 81.6118 27.8375V27.7233L88.3123 26.3527V29.6364C89.5306 27.8661 91.5795 26.1814 93.2685 26.1814Z"
    fill="#006926" />
  <path
    d="M102.083 26.1814C105.794 26.1814 108.202 28.2944 108.202 30.75V37.7456C108.202 39.9442 109.061 40.6294 109.808 40.6294C110.058 40.6294 110.279 40.5723 110.473 40.4581V40.5438C109.753 41.2862 108.756 42 107.178 42C105.517 42 104.52 41.0863 104.077 40.0298C102.831 41.1148 101.142 42 98.9824 42C96.1028 42 95.2999 39.9727 95.2999 38.6021C95.2999 32.8344 103.772 33.8052 103.772 30.1789C103.772 28.2944 102.803 27.3521 101.447 27.3521C99.3146 27.3521 97.0719 29.7221 96.5458 31.6922H96.4628L97.0442 27.4663C97.0442 27.4663 98.9547 26.1814 102.083 26.1814ZM103.772 38.5165V32.0063C102.443 34.1193 99.1762 34.9188 99.1762 37.2887C99.1762 38.545 100.035 40.0013 101.64 40.0013C102.471 40.0013 103.191 39.573 103.8 39.0019C103.772 38.8306 103.772 38.6878 103.772 38.5165Z"
    fill="#006926" />
  <path
    d="M117.026 26.1814C118.66 26.1814 120.681 27.0666 121.623 27.6091L121.982 32.4917H121.899C121.069 31.007 118.964 27.3521 116.749 27.3521C115.891 27.3521 115.448 27.9517 115.448 28.7512C115.448 31.578 122.342 34.519 122.342 38.1739C122.342 40.8579 119.767 42 116.5 42C114.894 42 112.928 41.1434 111.987 40.5723L111.599 35.7183H111.71C112.402 37.2316 114.617 40.8293 116.556 40.8293C117.995 40.8293 118.383 39.9156 118.383 39.0876C118.383 36.8604 111.932 34.4619 111.932 30.4644C111.932 28.0088 113.814 26.1814 117.026 26.1814Z"
    fill="#006926" />
  <path
    d="M127.595 19.9282C128.896 19.9282 129.976 21.0133 129.976 22.3838C129.976 23.7258 128.896 24.8109 127.595 24.8109C126.294 24.8109 125.214 23.7258 125.214 22.3838C125.214 21.0133 126.294 19.9282 127.595 19.9282ZM123.414 27.7233L130.115 26.3527V37.7456C130.115 40.658 130.89 41.743 132.385 41.743V41.8572H123.414V41.743C124.909 41.743 125.685 40.658 125.685 37.7456V31.5495C125.685 28.6656 124.909 27.8375 123.414 27.8375V27.7233Z"
    fill="#006926" />
  <path
    d="M133.392 21.2988L140.092 19.9282V37.7456C140.092 40.658 140.867 41.743 142.363 41.743V41.8572H133.392V41.743C134.887 41.743 135.662 40.658 135.662 37.7456V25.125C135.662 22.2411 134.887 21.413 133.392 21.413V21.2988Z"
    fill="#006926" />
  <path
    d="M66.9345 57.144C66.1105 57.144 65.3985 56.964 64.7985 56.604C64.2065 56.236 63.7465 55.728 63.4185 55.08C63.0905 54.424 62.9265 53.664 62.9265 52.8C62.9265 51.944 63.0905 51.192 63.4185 50.544C63.7465 49.888 64.2065 49.376 64.7985 49.008C65.3985 48.64 66.1105 48.456 66.9345 48.456C67.8945 48.456 68.6745 48.688 69.2745 49.152C69.8825 49.608 70.2705 50.248 70.4385 51.072H69.3225C69.1945 50.552 68.9305 50.136 68.5305 49.824C68.1385 49.504 67.6065 49.344 66.9345 49.344C66.3345 49.344 65.8105 49.484 65.3625 49.764C64.9145 50.036 64.5665 50.432 64.3185 50.952C64.0785 51.464 63.9585 52.08 63.9585 52.8C63.9585 53.52 64.0785 54.14 64.3185 54.66C64.5665 55.172 64.9145 55.568 65.3625 55.848C65.8105 56.12 66.3345 56.256 66.9345 56.256C67.6065 56.256 68.1385 56.104 68.5305 55.8C68.9305 55.488 69.1945 55.076 69.3225 54.564H70.4385C70.2705 55.372 69.8825 56.004 69.2745 56.46C68.6745 56.916 67.8945 57.144 66.9345 57.144ZM74.5393 57.144C73.9793 57.144 73.4753 57.016 73.0273 56.76C72.5793 56.504 72.2233 56.144 71.9593 55.68C71.7033 55.208 71.5753 54.656 71.5753 54.024C71.5753 53.392 71.7073 52.844 71.9713 52.38C72.2353 51.908 72.5913 51.544 73.0393 51.288C73.4953 51.032 74.0033 50.904 74.5633 50.904C75.1233 50.904 75.6273 51.032 76.0753 51.288C76.5233 51.544 76.8753 51.908 77.1313 52.38C77.3953 52.844 77.5273 53.392 77.5273 54.024C77.5273 54.656 77.3953 55.208 77.1313 55.68C76.8673 56.144 76.5073 56.504 76.0513 56.76C75.6033 57.016 75.0993 57.144 74.5393 57.144ZM74.5393 56.28C74.8833 56.28 75.2033 56.196 75.4993 56.028C75.7953 55.86 76.0353 55.608 76.2193 55.272C76.4033 54.936 76.4953 54.52 76.4953 54.024C76.4953 53.528 76.4033 53.112 76.2193 52.776C76.0433 52.44 75.8073 52.188 75.5113 52.02C75.2153 51.852 74.8993 51.768 74.5633 51.768C74.2193 51.768 73.8993 51.852 73.6033 52.02C73.3073 52.188 73.0673 52.44 72.8833 52.776C72.6993 53.112 72.6073 53.528 72.6073 54.024C72.6073 54.52 72.6993 54.936 72.8833 55.272C73.0673 55.608 73.3033 55.86 73.5913 56.028C73.8873 56.196 74.2033 56.28 74.5393 56.28ZM78.9288 57V51.048H79.8408L79.9008 52.116C80.0928 51.74 80.3688 51.444 80.7288 51.228C81.0888 51.012 81.4968 50.904 81.9528 50.904C82.6568 50.904 83.2168 51.12 83.6328 51.552C84.0568 51.976 84.2688 52.632 84.2688 53.52V57H83.2608V53.628C83.2608 52.388 82.7488 51.768 81.7248 51.768C81.2128 51.768 80.7848 51.956 80.4408 52.332C80.1048 52.7 79.9368 53.228 79.9368 53.916V57H78.9288ZM88.076 57.144C87.364 57.144 86.772 56.964 86.3 56.604C85.828 56.244 85.552 55.756 85.472 55.14H86.504C86.568 55.452 86.732 55.724 86.996 55.956C87.268 56.18 87.632 56.292 88.088 56.292C88.512 56.292 88.824 56.204 89.024 56.028C89.224 55.844 89.324 55.628 89.324 55.38C89.324 55.02 89.192 54.78 88.928 54.66C88.672 54.54 88.308 54.432 87.836 54.336C87.516 54.272 87.196 54.18 86.876 54.06C86.556 53.94 86.288 53.772 86.072 53.556C85.856 53.332 85.748 53.04 85.748 52.68C85.748 52.16 85.94 51.736 86.324 51.408C86.716 51.072 87.244 50.904 87.908 50.904C88.54 50.904 89.056 51.064 89.456 51.384C89.864 51.696 90.1 52.144 90.164 52.728H89.168C89.128 52.424 88.996 52.188 88.772 52.02C88.556 51.844 88.264 51.756 87.896 51.756C87.536 51.756 87.256 51.832 87.056 51.984C86.864 52.136 86.768 52.336 86.768 52.584C86.768 52.824 86.892 53.012 87.14 53.148C87.396 53.284 87.74 53.4 88.172 53.496C88.54 53.576 88.888 53.676 89.216 53.796C89.552 53.908 89.824 54.08 90.032 54.312C90.248 54.536 90.356 54.864 90.356 55.296C90.364 55.832 90.16 56.276 89.744 56.628C89.336 56.972 88.78 57.144 88.076 57.144ZM93.968 57.144C93.264 57.144 92.704 56.932 92.288 56.508C91.872 56.076 91.664 55.416 91.664 54.528V51.048H92.672V54.42C92.672 55.66 93.18 56.28 94.196 56.28C94.716 56.28 95.144 56.096 95.48 55.728C95.824 55.352 95.996 54.82 95.996 54.132V51.048H97.004V57H96.092L96.02 55.932C95.836 56.308 95.56 56.604 95.192 56.82C94.832 57.036 94.424 57.144 93.968 57.144ZM98.6632 57V48.36H99.6712V57H98.6632ZM103.675 57C103.131 57 102.703 56.868 102.391 56.604C102.079 56.34 101.923 55.864 101.923 55.176V51.9H100.891V51.048H101.923L102.055 49.62H102.931V51.048H104.683V51.9H102.931V55.176C102.931 55.552 103.007 55.808 103.159 55.944C103.311 56.072 103.579 56.136 103.963 56.136H104.587V57H103.675ZM108.512 57.144C107.952 57.144 107.448 57.016 107 56.76C106.552 56.504 106.196 56.144 105.932 55.68C105.676 55.208 105.548 54.656 105.548 54.024C105.548 53.392 105.68 52.844 105.944 52.38C106.208 51.908 106.564 51.544 107.012 51.288C107.468 51.032 107.976 50.904 108.536 50.904C109.096 50.904 109.6 51.032 110.048 51.288C110.496 51.544 110.848 51.908 111.104 52.38C111.368 52.844 111.5 53.392 111.5 54.024C111.5 54.656 111.368 55.208 111.104 55.68C110.84 56.144 110.48 56.504 110.024 56.76C109.576 57.016 109.072 57.144 108.512 57.144ZM108.512 56.28C108.856 56.28 109.176 56.196 109.472 56.028C109.768 55.86 110.008 55.608 110.192 55.272C110.376 54.936 110.468 54.52 110.468 54.024C110.468 53.528 110.376 53.112 110.192 52.776C110.016 52.44 109.78 52.188 109.484 52.02C109.188 51.852 108.872 51.768 108.536 51.768C108.192 51.768 107.872 51.852 107.576 52.02C107.28 52.188 107.04 52.44 106.856 52.776C106.672 53.112 106.58 53.528 106.58 54.024C106.58 54.52 106.672 54.936 106.856 55.272C107.04 55.608 107.276 55.86 107.564 56.028C107.86 56.196 108.176 56.28 108.512 56.28ZM112.901 57V51.048H113.813L113.897 52.188C114.081 51.796 114.361 51.484 114.737 51.252C115.113 51.02 115.577 50.904 116.129 50.904V51.96H115.853C115.501 51.96 115.177 52.024 114.881 52.152C114.585 52.272 114.349 52.48 114.173 52.776C113.997 53.072 113.909 53.48 113.909 54V57H112.901ZM117.873 49.728C117.673 49.728 117.505 49.664 117.369 49.536C117.241 49.4 117.177 49.232 117.177 49.032C117.177 48.84 117.241 48.68 117.369 48.552C117.505 48.424 117.673 48.36 117.873 48.36C118.065 48.36 118.229 48.424 118.365 48.552C118.501 48.68 118.569 48.84 118.569 49.032C118.569 49.232 118.501 49.4 118.365 49.536C118.229 49.664 118.065 49.728 117.873 49.728ZM117.369 57V51.048H118.377V57H117.369ZM122.112 57.144C121.616 57.144 121.204 57.06 120.876 56.892C120.548 56.724 120.304 56.5 120.144 56.22C119.984 55.94 119.904 55.636 119.904 55.308C119.904 54.7 120.136 54.232 120.6 53.904C121.064 53.576 121.696 53.412 122.496 53.412H124.104V53.34C124.104 52.82 123.968 52.428 123.696 52.164C123.424 51.892 123.06 51.756 122.604 51.756C122.212 51.756 121.872 51.856 121.584 52.056C121.304 52.248 121.128 52.532 121.056 52.908H120.024C120.064 52.476 120.208 52.112 120.456 51.816C120.712 51.52 121.028 51.296 121.404 51.144C121.78 50.984 122.18 50.904 122.604 50.904C123.436 50.904 124.06 51.128 124.476 51.576C124.9 52.016 125.112 52.604 125.112 53.34V57H124.212L124.152 55.932C123.984 56.268 123.736 56.556 123.408 56.796C123.088 57.028 122.656 57.144 122.112 57.144ZM122.268 56.292C122.652 56.292 122.98 56.192 123.252 55.992C123.532 55.792 123.744 55.532 123.888 55.212C124.032 54.892 124.104 54.556 124.104 54.204V54.192H122.58C121.988 54.192 121.568 54.296 121.32 54.504C121.08 54.704 120.96 54.956 120.96 55.26C120.96 55.572 121.072 55.824 121.296 56.016C121.528 56.2 121.852 56.292 122.268 56.292Z"
    fill="#B0AA98" />
  <defs>
    <filter id="filter0_d_73_1102" x="2.8833" y="5.27429" width="21.2358" height="34.9264" filterUnits="userSpaceOnUse"
      color-interpolation-filters="sRGB">
      <feFlood flood-opacity="0" result="BackgroundImageFix" />
      <feColorMatrix in="SourceAlpha" type="matrix" values="0 0 0 0 0 0 0 0 0 0 0 0 0 0 0 0 0 0 127 0"
        result="hardAlpha" />
      <feOffset dy="1" />
      <feGaussianBlur stdDeviation="1" />
      <feComposite in2="hardAlpha" operator="out" />
      <feColorMatrix type="matrix" values="0 0 0 0 0 0 0 0 0 0 0 0 0 0 0 0 0 0 0.3 0" />
      <feBlend mode="normal" in2="BackgroundImageFix" result="effect1_dropShadow_73_1102" />
      <feBlend mode="normal" in="SourceGraphic" in2="effect1_dropShadow_73_1102" result="shape" />
    </filter>
    <filter id="filter1_d_73_1102" x="17.5864" y="0.56958" width="36.7761" height="53.4501" filterUnits="userSpaceOnUse"
      color-interpolation-filters="sRGB">
      <feFlood flood-opacity="0" result="BackgroundImageFix" />
      <feColorMatrix in="SourceAlpha" type="matrix" values="0 0 0 0 0 0 0 0 0 0 0 0 0 0 0 0 0 0 127 0"
        result="hardAlpha" />
      <feOffset dx="-2" />
      <feGaussianBlur stdDeviation="1" />
      <feComposite in2="hardAlpha" operator="out" />
      <feColorMatrix type="matrix" values="0 0 0 0 0 0 0 0 0 0 0 0 0 0 0 0 0 0 0.15 0" />
      <feBlend mode="normal" in2="BackgroundImageFix" result="effect1_dropShadow_73_1102" />
      <feBlend mode="normal" in="SourceGraphic" in2="effect1_dropShadow_73_1102" result="shape" />
    </filter>
    <filter id="filter2_d_73_1102" x="23.0176" y="14.6166" width="26.8057" height="26.8055" filterUnits="userSpaceOnUse"
      color-interpolation-filters="sRGB">
      <feFlood flood-opacity="0" result="BackgroundImageFix" />
      <feColorMatrix in="SourceAlpha" type="matrix" values="0 0 0 0 0 0 0 0 0 0 0 0 0 0 0 0 0 0 127 0"
        result="hardAlpha" />
      <feOffset dx="-1" />
      <feGaussianBlur stdDeviation="0.5" />
      <feComposite in2="hardAlpha" operator="out" />
      <feColorMatrix type="matrix" values="0 0 0 0 0 0 0 0 0 0 0 0 0 0 0 0 0 0 0.15 0" />
      <feBlend mode="normal" in2="BackgroundImageFix" result="effect1_dropShadow_73_1102" />
      <feBlend mode="normal" in="SourceGraphic" in2="effect1_dropShadow_73_1102" result="shape" />
    </filter>
    <filter id="filter3_d_73_1102" x="26.718" y="5.14661" width="24.4275" height="48.5507" filterUnits="userSpaceOnUse"
      color-interpolation-filters="sRGB">
      <feFlood flood-opacity="0" result="BackgroundImageFix" />
      <feColorMatrix in="SourceAlpha" type="matrix" values="0 0 0 0 0 0 0 0 0 0 0 0 0 0 0 0 0 0 127 0"
        result="hardAlpha" />
      <feOffset dy="1" />
      <feGaussianBlur stdDeviation="0.5" />
      <feComposite in2="hardAlpha" operator="out" />
      <feColorMatrix type="matrix" values="0 0 0 0 0 0 0 0 0 0 0 0 0 0 0 0 0 0 0.3 0" />
      <feBlend mode="normal" in2="BackgroundImageFix" result="effect1_dropShadow_73_1102" />
      <feBlend mode="normal" in="SourceGraphic" in2="effect1_dropShadow_73_1102" result="shape" />
    </filter>
    <filter id="filter4_d_73_1102" x="3" y="47.4088" width="44.5" height="13.1827" filterUnits="userSpaceOnUse"
      color-interpolation-filters="sRGB">
      <feFlood flood-opacity="0" result="BackgroundImageFix" />
      <feColorMatrix in="SourceAlpha" type="matrix" values="0 0 0 0 0 0 0 0 0 0 0 0 0 0 0 0 0 0 127 0"
        result="hardAlpha" />
      <feOffset dy="-1" />
      <feGaussianBlur stdDeviation="1" />
      <feComposite in2="hardAlpha" operator="out" />
      <feColorMatrix type="matrix" values="0 0 0 0 0 0 0 0 0 0 0 0 0 0 0 0 0 0 0.15 0" />
      <feBlend mode="normal" in2="BackgroundImageFix" result="effect1_dropShadow_73_1102" />
      <feBlend mode="normal" in="SourceGraphic" in2="effect1_dropShadow_73_1102" result="shape" />
    </filter>
    <linearGradient id="paint0_linear_73_1102" x1="27.5949" y1="52.0196" x2="22.4405" y2="5.62995"
      gradientUnits="userSpaceOnUse">
      <stop stop-color="#46E881" />
      <stop offset="1" stop-color="#006926" />
    </linearGradient>
    <linearGradient id="paint1_linear_73_1102" x1="49.0178" y1="2.73054" x2="27.5948" y2="52.0195"
      gradientUnits="userSpaceOnUse">
      <stop stop-color="#FFD51A" />
      <stop offset="1" stop-color="#FFE74D" />
    </linearGradient>
    <linearGradient id="paint2_linear_73_1102" x1="32.427" y1="25.6032" x2="49.8231" y2="29.7912"
      gradientUnits="userSpaceOnUse">
      <stop stop-color="#1A66FF" />
      <stop offset="1" stop-color="#002570" />
    </linearGradient>
  </defs>
</svg>